<?xml version="1.0" encoding="UTF-8"?>
<svg id="Ebene_1" data-name="Ebene 1" xmlns="http://www.w3.org/2000/svg" viewBox="0 0 1725.55 6578">
  <defs>
    <style>
      .cls-1 {
        fill: none;
        stroke: #e387ab;
        stroke-miterlimit: 10;
        stroke-width: 30px;
      }

      .cls-2 {
        fill: #fff;
      }

      .cls-3 {
        fill: #fff3d9;
      }

      .cls-4 {
        fill: #317456;
      }

      .cls-5 {
        fill: #bf3a3b;
      }

      .cls-6 {
        fill: #e387ab;
      }

      .cls-7 {
        fill: #e37e41;
      }
    </style>
  </defs>
  <rect class="cls-3" x="285.27" width="1440" height="6578"/>
  <path class="cls-5" d="m1211.61,2268.87c-6.21,0-5.42.91-5.42-5.25-.02-143.68,0-287.36-.06-431.03,0-2.96.69-5.44,2.26-7.99,17.18-27.94,32.21-56.89,40.93-88.74.85-3.1.73-7.34,2.75-9.03,2.28-1.9,6.3.48,9.56.6,17.42.67,34.83,1.68,52.28.16,21.48-1.88,42.52-5.84,62.94-12.72,45.89-15.46,84.35-41.74,114.75-79.56,17.07-21.24,28.3-45.62,37.37-71.04,14.95-41.93,19.31-84.88,10.22-128.67-13.39-64.52-49.63-114.65-99.83-155.62-10.76-8.78-22.13-16.84-34.31-23.63-2.64-1.47-3.4-3-2.14-5.8,2.88-6.42,4.93-13.13,7.03-19.84,7.31-23.48,11.03-47.57,12.26-72.05.73-14.55-.23-29.06-2.1-43.55-1.87-14.47-4.89-28.64-9.24-42.53-9.21-29.42-23.81-56.04-43.39-79.72-40.72-49.24-91.7-80.44-156.24-87.12-15.76-1.63-31.55-1.47-47.27.32-36.32,4.14-70.18,15.89-102.12,33.51-19.32,10.66-37.23,24.28-54.35,38.13,10,10.78,19.82,21.71,28.22,33.83.42.61.63,1.84.94,2.64,6.83-4.73,14.09-9.73,21.38-14.7,3.69-2.62,7.42-5.16,11.2-7.6.12-.08.24-.16.36-.24.75-.5,1.43-.93,2.09-1.32,16.23-10.25,33.41-18.82,51.78-25.21,33.77-11.74,68.22-15.5,103.44-7.64,39.05,8.72,70.67,29.74,96.93,59.31,23.92,26.94,39.93,57.77,46.01,93.6,1.73,10.22,2.99,20.45,3.57,30.75.72,12.84-.51,25.6-2.16,38.37-1.27,9.84-3.12,19.52-5.6,29.07-3.95,15.2-9.06,30.04-16.91,43.7-6.63,11.55-3.55,28.52,10.27,34.88,5.43,2.5,10.89,4.97,16.07,7.92,34.71,19.78,63.65,45.98,85.99,79.1,29.3,43.43,40.5,90.97,30.39,142.83-5.78,29.62-15.91,57.86-33.87,82.19-37.88,51.28-90.43,75.83-153.14,80.06-23.05,1.55-45.93-.54-68.62-5.03-4.36-.86-9.07-.97-13.47.24-10.13,2.78-17.29,12.55-17.48,23.05-.05,2.6.85,5.1.61,7.62-.69,7.45-2.07,14.77-4.27,21.95-8.64,28.19-22.65,53.76-38.41,78.43-3.69,5.77-5.5,11.72-5.49,18.59.1,76.24.06,152.48.06,228.71s.15,158.95-.14,238.42c-.05,14.84,10.95,26.82,26.48,26.52,21.61-.42,43.23-.13,64.85-.13,110.54,0,221.08.02,331.62.03,29.14,0,145.08-.03,145.08-.03l.28-48.73s-349.93,0-513.94-.03Z"/>
  <path class="cls-6" d="m999.48,1040.19c4.99-3.53,19.95-14.09,37.77-26.43-.6-1.06-1.14-2.15-1.83-3.14-8.39-12.12-18.22-23.05-28.22-33.83-5.79-5.15-11.36-10.58-17.41-15.4-17.16-13.66-48.52-26.98-68.69-35.81-30.81-13.49-63.09-20.2-96.55-21.43-16.02-.58-31.98.6-47.87,2.93-25.33,3.72-49.75,10.59-73.02,21.24-31.41,14.36-59.13,33.83-82.08,59.9-15,17.03-27.28,35.77-36.04,56.67-14.57,34.77-19.47,70.93-15.29,108.46,2.26,20.25,6.67,39.94,13.15,59.19,5.33,15.82,11.76,31.21,19.45,46.05,2.35,4.53,2.34,4.59-2.24,6.63-17.05,7.63-33.2,16.8-48.42,27.63-19.49,13.87-36.9,29.98-52.07,48.46-17.63,21.48-31.38,45.19-40.15,71.64-8.99,27.12-12.94,54.87-10.9,83.5,1.01,14.2,2.89,28.2,6.03,42.05,4.99,22.03,12.86,43.08,22.48,63.45,7.06,14.97,14.65,29.72,24.29,43.23,8.22,11.52,18.57,21.11,29.41,30.17,23.38,19.54,49.48,34.26,78.33,43.95,18.03,6.06,36.56,9.78,55.61,11.11,13.08.92,26.1.93,39.08-.39,13.73-1.4,27.3-3.98,40.6-7.84,3.75-1.09,4.88-.34,4.84,3.5-.05,5.85.98,11.6,1.85,17.3,4.23,27.89,11.88,54.72,25.68,79.56,11.39,20.5,26.17,38.08,44.9,52.26,14.66,11.1,30.84,19.25,48.18,25.36,13.1,4.62,27.46-1.14,32.15-13.62,5.03-13.38-1.67-27.34-15.5-32-19.59-6.6-36.68-16.98-50.69-32.37-8.09-8.88-14.79-18.69-19.95-29.42-13.34-27.71-18.5-57.32-19.29-87.82-.17-6.47.06-12.95-.05-19.42-.3-16.9-18.52-28.48-33.88-21.61-18.97,8.49-38.66,14.3-59.34,16.99-17.98,2.34-35.87,1.94-53.59-1.26-28.8-5.2-55.07-16.67-78.62-34.1-12.94-9.57-25.23-20.02-33.72-33.88-13.35-21.78-24.16-44.8-31.47-69.37-7.29-24.48-10.74-49.31-8.51-74.92,1.85-21.28,7.59-41.39,17.05-60.39,10.52-21.13,24.82-39.49,42.19-55.54,16.07-14.85,33.77-27.29,53.22-37.18,11.52-5.85,23.51-10.58,36.12-13.77,16.55-4.19,23.68-21.97,14.91-36.52-11.16-18.53-21.16-37.62-28.72-57.94-11.36-30.52-17.38-61.79-14.32-94.51,1.77-18.85,6.66-36.78,14.81-53.85,14.04-29.4,35.61-52.16,62.63-69.84,32.73-21.41,68.97-32.59,107.87-34.92,23.2-1.39,46.18.81,68.69,6.94,33.35,9.09,75.46,27.31,100.29,51.4,8.55,8.29,16.25,17.36,23.01,27.17,1.27,1.85,2.33,2.41,3.87,1.77Z"/>
  <path class="cls-1" d="m1725.27,2517H469.27c-22.09,0-40,17.91-40,40v824"/>
  <path class="cls-4" d="m1324.27,3691h0c-8.28,0-15-6.72-15-15v-280H429.27c-8.28,0-15-6.72-15-15v-15h910c8.28,0,15,6.72,15,15v295c0,8.28-6.72,15-15,15Z"/>
  <g>
    <path class="cls-7" d="m598.23,4001c-101.46,0-184-82.54-184-184s82.54-184,184-184,184,82.54,184,184-82.54,184-184,184Zm0-338c-84.92,0-154,69.08-154,154s69.08,154,154,154,154-69.08,154-154-69.08-154-154-154Z"/>
    <path class="cls-4" d="m598.23,3950.92c-73.85,0-133.92-60.08-133.92-133.92s60.08-133.93,133.92-133.93,133.93,60.08,133.93,133.93-60.08,133.92-133.93,133.92Zm0-237.85c-57.3,0-103.92,46.62-103.92,103.93s46.62,103.92,103.92,103.92,103.93-46.62,103.93-103.92-46.62-103.93-103.93-103.93Z"/>
  </g>
  <path class="cls-5" d="m1391.79,5250.08c5.86,0,10.7-4.83,10.62-10.62-.08-5.74-4.81-10.44-10.54-10.46-5.82-.03-10.75,4.79-10.75,10.5,0,5.77,4.84,10.57,10.67,10.58Zm32.36-21.08c-5.77,0-10.5,4.67-10.55,10.42-.05,5.93,4.62,10.65,10.54,10.66,5.83,0,10.48-4.59,10.53-10.4.05-5.93-4.63-10.68-10.52-10.68Z"/>
  <path class="cls-2" d="m0,4441.58c.31-.02.61-.04.92-.06.02,1,.07,2,.07,2.99"/>
  <path class="cls-5" d="m1724,5410.5c.31.02.61.04.92.06,0,13.01,0,26.03,0,39.04-.31.02-.61.04-.92.06-1-.03-2-.08-2.99-.08-234.72,0-469.43,0-704.15,0-8.17,0-15.69,1.94-21.66,7.91-3.29,3.3-5.04,7.2-5.03,12.06.07,63.16-.07,126.32.11,189.48.07,23.37-10.66,39.97-30.51,51.19-10.78,6.09-22.48,8.94-34.89,8.94-104.2-.02-208.4.11-312.6-.11-21.95-.05-40.53-8.48-54.23-26.12-6.61-8.51-9.98-18.36-10.15-29.2-.14-8.66-.23-17.32-.23-25.98-.02-55.58-.12-111.15.09-166.73.04-9.31-4.49-15-12.24-18.39-4.08-1.78-8.81-2.93-13.25-2.94-78.88-.16-157.75-.11-236.63-.1,0-13.02,0-26.03,0-39.04,64.22,0,128.44.02,192.67.02,14.66,0,29.33-.32,43.98.08,21.8.6,40.4,8.47,54.07,26.04,7.08,9.1,10.39,19.63,10.4,31.15.01,63.16,0,126.33,0,189.49,0,11.52,5.64,18.85,16.94,21.65,2.88.71,5.92,1.11,8.88,1.11,104.29.06,208.58.06,312.86.03,8.87,0,16.73-2.62,22.47-9.87,2.29-2.9,3.35-6.2,3.35-9.95-.04-63.25.11-126.49-.09-189.74-.08-24.12,11.41-40.72,31.94-51.8,10.59-5.71,22.06-8.2,34.1-8.2,118.11.01,236.23,0,354.34,0h3.59v-2.99c0-39.91,0-79.83,0-119.74,0-18.05,15.77-33.52,33.87-33.84,13.46-.23,23.97,5.01,31.56,15.84,7.09,10.12,7.28,20.93,1.77,31.9-.44.88-.95,1.73-1.5,2.71,20.81,13.22,30.78,32.21,28.72,56.7-2.1,24.85-16.7,40.4-39.59,49.43h2.69c96.29,0,192.58,0,288.87,0,.83,0,1.66-.05,2.49-.08Zm-321.8-23.61c14.64,1.58,27.4-1.28,35-14.94,6.86-12.34,6.67-24.97-1.52-36.74-8.15-11.72-20.18-13.84-33.48-12.35v64.03Zm-.05-90.31c3.16,0,6.05.04,8.95,0,5.05-.08,8.48-3.61,8.59-8.74.11-5.31-3.41-9.26-8.47-9.51-4.66-.23-8.76,3.5-9.03,8.45-.18,3.14-.03,6.3-.03,9.81Z"/>
</svg>