<?xml version="1.0" encoding="UTF-8"?>
<svg id="Ebene_1" data-name="Ebene 1" xmlns="http://www.w3.org/2000/svg" viewBox="0 0 1440 6261">
  <defs>
    <style>
      .cls-1 {
        fill: none;
      }

      .cls-2 {
        fill: #fff3d9;
      }

      .cls-3 {
        fill: #317456;
      }

      .cls-4 {
        fill: #bf3a3b;
      }

      .cls-5 {
        fill: #e387ab;
      }

      .cls-6 {
        fill: #e27e41;
      }
    </style>
  </defs>
  <rect class="cls-2" width="1440" height="6261"/>
  <path class="cls-5" d="m.65,4651.34l-.11-39,89.54-.39c11.27-.03,20.44-9.23,20.44-20.5v-975.95c0-11.3-9.2-20.5-20.5-20.5H.65v-39h89.38c32.81,0,59.5,26.69,59.5,59.5v975.95c0,32.72-26.62,59.41-59.33,59.5l-89.54.39h-.01Z"/>
  <path class="cls-3" d="m1440.42,4649l.11,39-89.54.39c-11.27.03-20.44,9.23-20.44,20.5v653.95c0,11.3,9.2,20.5,20.5,20.5h89.37v39h-89.38c-32.81,0-59.5-26.69-59.5-59.5v-653.95c0-32.72,26.62-59.41,59.33-59.5l89.54-.39h.01Z"/>
  <path class="cls-1" d="m1279.5,2669.5c0,88.61,71.95,160.72,160.5,160.99v-321.99c-88.55.27-160.5,72.39-160.5,160.99Z"/>
  <path class="cls-1" d="m1188,2669.5c0,67.45,26.26,130.85,73.96,178.54,47.57,47.57,110.79,73.82,178.04,73.95v-36.5c-57.51-.13-111.56-22.58-152.24-63.26-40.8-40.8-63.26-95.04-63.26-152.73s22.47-111.94,63.26-152.73c40.68-40.68,94.73-63.13,152.24-63.26v-36.5c-67.26.13-130.47,26.38-178.04,73.95-47.69,47.69-73.96,111.1-73.96,178.54Z"/>
  <path class="cls-4" d="m1279.5,2669.5c0-88.61,71.95-160.72,160.5-160.99v-55c-57.51.13-111.56,22.58-152.24,63.26-40.8,40.8-63.26,95.04-63.26,152.73s22.47,111.94,63.26,152.73c40.68,40.68,94.73,63.13,152.24,63.26v-55c-88.55-.27-160.5-72.39-160.5-160.99Z"/>
  <path class="cls-6" d="m1261.96,2848.04c-47.69-47.69-73.96-111.1-73.96-178.54s26.26-130.85,73.96-178.54c47.57-47.57,110.79-73.82,178.04-73.95v-55c-81.95.13-158.97,32.1-216.94,90.06-58.08,58.08-90.06,135.3-90.06,217.44s31.99,159.36,90.06,217.44c57.96,57.96,134.99,89.93,216.94,90.06v-55c-67.26-.13-130.47-26.38-178.04-73.95Z"/>
  <path class="cls-1" d="m134.83,639.79c41.33,17.48,78.43,42.49,110.28,74.35,31.85,31.85,56.87,68.96,74.35,110.28,18.11,42.81,27.29,88.26,27.29,135.08s-9.18,92.27-27.29,135.08c-17.48,41.33-42.49,78.43-74.35,110.28-31.85,31.85-68.96,56.87-110.28,74.35-42.73,18.07-88.09,27.25-134.83,27.28v57.5c54.54-.03,107.42-10.72,157.19-31.77,48.16-20.37,91.43-49.54,128.59-86.71,37.16-37.16,66.33-80.43,86.71-128.59,21.08-49.84,31.77-102.81,31.77-157.44s-10.69-107.6-31.77-157.44c-20.37-48.16-49.54-91.43-86.71-128.59-37.16-37.16-80.43-66.33-128.59-86.71-49.76-21.05-102.65-31.74-157.19-31.77v57.5c46.74.03,92.1,9.21,134.83,27.28Z"/>
  <path class="cls-1" d="m182.89,1142.64c48.92-48.92,75.86-113.96,75.86-183.14s-26.94-134.22-75.86-183.14c-48.86-48.86-113.8-75.79-182.89-75.86v517.99c69.09-.06,134.03-27,182.89-75.86Z"/>
  <path class="cls-6" d="m245.12,1204.87c31.85-31.85,56.87-68.96,74.35-110.28,18.11-42.81,27.29-88.26,27.29-135.08s-9.18-92.27-27.29-135.08c-17.48-41.33-42.49-78.43-74.35-110.28-31.85-31.85-68.96-56.87-110.28-74.35-42.73-18.07-88.09-27.25-134.83-27.28v88c69.09.06,134.03,27,182.89,75.86,48.92,48.92,75.86,113.96,75.86,183.14s-26.94,134.22-75.86,183.14c-48.86,48.86-113.8,75.79-182.89,75.86v88c46.74-.03,92.1-9.21,134.83-27.28,41.33-17.48,78.43-42.49,110.28-74.35Z"/>
  <path class="cls-4" d="m453.53,767.78c-24.81-58.65-60.31-111.32-105.53-156.53s-97.88-80.72-156.53-105.53c-60.67-25.66-125.09-38.69-191.47-38.72v88c54.54.03,107.42,10.72,157.19,31.77,48.16,20.37,91.43,49.54,128.59,86.71,37.16,37.16,66.33,80.43,86.71,128.59,21.08,49.84,31.77,102.81,31.77,157.44s-10.69,107.6-31.77,157.44c-20.37,48.16-49.54,91.43-86.71,128.59-37.16,37.16-80.43,66.33-128.59,86.71-49.76,21.05-102.65,31.74-157.19,31.77v88c66.38-.03,130.8-13.06,191.47-38.72,58.65-24.81,111.32-60.31,156.53-105.53s80.72-97.88,105.53-156.53c25.69-60.75,38.72-125.25,38.72-191.72s-13.03-130.97-38.72-191.72Z"/>
  <path class="cls-1" d="m1247,379c0,106.42,86.58,193,193,193v-28.01c-91.03-.27-165-74.4-165-165.49s73.97-165.22,165-165.49v-27.01c-106.42,0-193,86.58-193,193Z"/>
  <path class="cls-1" d="m1318,378.5c0,67.38,54.68,122.22,122,122.49v-244.99c-67.32.27-122,55.11-122,122.49Z"/>
  <path class="cls-3" d="m1318,378.5c0-67.38,54.68-122.22,122-122.49v-43c-91.03.27-165,74.4-165,165.49s73.97,165.22,165,165.49v-43c-67.32-.27-122-55.11-122-122.49Z"/>
  <path class="cls-5" d="m1247,379c0-106.42,86.58-193,193-193v-43c-63.04,0-122.3,24.55-166.88,69.12-44.58,44.57-69.12,103.84-69.12,166.88s24.55,122.3,69.12,166.88c44.57,44.57,103.84,69.12,166.88,69.12v-43c-106.42,0-193-86.58-193-193Z"/>
</svg>