<?xml version="1.0" encoding="utf-8"?>
<!-- Generator: Adobe Illustrator 27.7.0, SVG Export Plug-In . SVG Version: 6.00 Build 0)  -->
<svg version="1.1" id="Ebene_1" xmlns="http://www.w3.org/2000/svg" xmlns:xlink="http://www.w3.org/1999/xlink" x="0px" y="0px"
	 viewBox="0 0 1440 8147" style="enable-background:new 0 0 1440 8147;" xml:space="preserve">
<style type="text/css">
	.st0{fill:#FFF3D9;}
	.st1{fill:#E387AB;}
	.st2{fill:#BF3A3B;}
	.st3{fill:#E27E41;}
	.st4{fill:#317456;}
	.st5{fill:#E27E41;stroke:#1D1D1B;}
</style>
<rect class="st0" width="1440" height="8147"/>
<path class="st1" d="M1265.5,888L1265.5,888c-10.77,0-19.5-8.73-19.5-19.5V1h39v867.5C1285,879.27,1276.27,888,1265.5,888z"/>
<path class="st2" d="M1337.5,1485L1337.5,1485c-10.77,0-19.5-8.73-19.5-19.5v-1252c0-10.77,8.73-19.5,19.5-19.5l0,0
	c10.77,0,19.5,8.73,19.5,19.5v1252C1357,1476.27,1348.27,1485,1337.5,1485z"/>
<g>
	<path class="st3" d="M162.96,559.67H0v-39h162.96c5.48,0,10.63-2.13,14.5-6.01c3.87-3.88,6-9.03,6-14.51l-0.23-231.67
		c-0.01-11.29-9.21-20.48-20.5-20.48H0v-39h162.73c32.77,0,59.47,26.66,59.5,59.44l0.23,231.67c0.02,15.9-6.17,30.86-17.41,42.11
		C193.81,553.47,178.86,559.67,162.96,559.67z"/>
</g>
<g>
	<path class="st4" d="M234.08,632.17H0v-39h234.08c11.32,0,20.5-9.18,20.5-20.5V196.45c0-11.32-9.18-20.5-20.5-20.5h-85.87
		c-10.77,0-19.5-8.73-19.5-19.5v0c0-10.77,8.73-19.5,19.5-19.5h85.87c32.86,0,59.5,26.64,59.5,59.5v376.22
		C293.58,605.53,266.94,632.17,234.08,632.17z"/>
</g>
<g>
	<path class="st4" d="M737.09,1774.18c-61.99,0-120.28-24.14-164.11-67.98S505,1604.08,505,1542.09s24.14-120.28,67.98-164.11
		S675.1,1310,737.09,1310c61.99,0,120.28,24.14,164.11,67.98s67.98,102.12,67.98,164.11s-24.14,120.28-67.98,164.11
		S799.08,1774.18,737.09,1774.18z M737.09,1349C630.62,1349,544,1435.62,544,1542.09s86.62,193.09,193.09,193.09
		c106.47,0,193.09-86.62,193.09-193.09S843.56,1349,737.09,1349z"/>
</g>
<g>
	<path class="st1" d="M737.09,1711.09c-93.19,0-169-75.81-169-169s75.81-169,169-169c93.19,0,169,75.81,169,169
		S830.28,1711.09,737.09,1711.09z M737.09,1412.09c-71.68,0-130,58.32-130,130s58.32,130,130,130c71.68,0,130-58.32,130-130
		S808.77,1412.09,737.09,1412.09z"/>
</g>
<g>
	<path class="st3" d="M737.09,4284.18c-61.99,0-120.28-24.14-164.11-67.98S505,4114.08,505,4052.09s24.14-120.28,67.98-164.11
		S675.1,3820,737.09,3820c61.99,0,120.28,24.14,164.11,67.98s67.98,102.12,67.98,164.11s-24.14,120.28-67.98,164.11
		S799.08,4284.18,737.09,4284.18z M737.09,3859C630.62,3859,544,3945.62,544,4052.09s86.62,193.09,193.09,193.09
		c106.47,0,193.09-86.62,193.09-193.09S843.56,3859,737.09,3859z"/>
</g>
<g>
	<path class="st4" d="M737.09,4221.09c-93.19,0-169-75.81-169-169s75.81-169,169-169c93.19,0,169,75.81,169,169
		S830.28,4221.09,737.09,4221.09z M737.09,3922.09c-71.68,0-130,58.32-130,130s58.32,130,130,130c71.68,0,130-58.32,130-130
		S808.77,3922.09,737.09,3922.09z"/>
</g>
<g>
	<path class="st1" d="M0,5864l-0.11-39l89.54-0.39c11.27-0.03,20.44-9.23,20.44-20.5V4421.16c0-11.3-9.2-20.5-20.5-20.5H0v-39h89.38
		c32.81,0,59.5,26.69,59.5,59.5v1382.95c0,32.72-26.62,59.41-59.33,59.5L0,5864z"/>
</g>
<g>
	<path class="st5" d="M954,7279.31H545c-32.81,0-59.5-26.69-59.5-59.5V7016.5c0-11.3-9.2-20.5-20.5-20.5H-0.11v-39H465
		c32.81,0,59.5,26.69,59.5,59.5v203.31c0,11.3,9.2,20.5,20.5,20.5h409c11.3,0,20.5-9.2,20.5-20.5V7016.5
		c0-32.81,26.69-59.5,59.5-59.5h406v39h-406c-11.3,0-20.5,9.2-20.5,20.5v203.31C1013.5,7252.62,986.81,7279.31,954,7279.31z"/>
</g>
<g>
	<path class="st2" d="M1044,7364.31H455c-32.81,0-59.5-26.69-59.5-59.5V7101.5c0-11.3-9.2-20.5-20.5-20.5H-0.11v-39H375
		c32.81,0,59.5,26.69,59.5,59.5v203.31c0,11.3,9.2,20.5,20.5,20.5h589c11.3,0,20.5-9.2,20.5-20.5V7101.5
		c0-32.81,26.69-59.5,59.5-59.5h316v39h-316c-11.3,0-20.5,9.2-20.5,20.5v203.31C1103.5,7337.62,1076.81,7364.31,1044,7364.31z"/>
</g>
</svg>
