<?xml version="1.0" encoding="UTF-8"?>
<svg id="Ebene_1" data-name="Ebene 1" xmlns="http://www.w3.org/2000/svg" viewBox="0 0 1440 8147">
  <defs>
    <style>
      .cls-1 {
        fill: #e488ac;
      }

      .cls-2 {
        fill: #fff3d9;
      }

      .cls-3 {
        fill: #317456;
      }

      .cls-4 {
        fill: #bf3a3b;
      }

      .cls-5 {
        fill: #e37e41;
      }
    </style>
  </defs>
  <rect class="cls-2" width="1440" height="8147"/>
  <path class="cls-1" d="m1246,1h39v867.5c0,10.76-8.74,19.5-19.5,19.5h0c-10.76,0-19.5-8.74-19.5-19.5V1h0Z"/>
  <path class="cls-4" d="m1337.5,194h0c10.77,0,19.5,8.73,19.5,19.5v1252c0,10.77-8.73,19.5-19.5,19.5h0c-10.77,0-19.5-8.73-19.5-19.5V213.5c0-10.77,8.73-19.5,19.5-19.5Z"/>
  <path class="cls-5" d="m162.96,559.67H0v-39h162.96c5.48,0,10.63-2.13,14.5-6.01s6-9.03,6-14.51l-.23-231.67c0-11.29-9.21-20.48-20.5-20.48H0v-39h162.73c32.77,0,59.47,26.66,59.5,59.44l.23,231.67c.02,15.9-6.17,30.86-17.41,42.11s-26.19,17.45-42.09,17.45h0Z"/>
  <path class="cls-3" d="m234.08,632.17H0v-39h234.08c11.32,0,20.5-9.18,20.5-20.5V196.45c0-11.32-9.18-20.5-20.5-20.5h-85.87c-10.77,0-19.5-8.73-19.5-19.5h0c0-10.77,8.73-19.5,19.5-19.5h85.87c32.86,0,59.5,26.64,59.5,59.5v376.22c0,32.86-26.64,59.5-59.5,59.5h0Z"/>
  <g>
    <path class="cls-3" d="m737.09,1774.18c-61.99,0-120.28-24.14-164.11-67.98s-67.98-102.12-67.98-164.11,24.14-120.28,67.98-164.11,102.12-67.98,164.11-67.98,120.28,24.14,164.11,67.98,67.98,102.12,67.98,164.11-24.14,120.28-67.98,164.11-102.12,67.98-164.11,67.98Zm0-425.18c-106.47,0-193.09,86.62-193.09,193.09s86.62,193.09,193.09,193.09,193.09-86.62,193.09-193.09-86.62-193.09-193.09-193.09h0Z"/>
    <path class="cls-1" d="m737.09,1711.09c-93.19,0-169-75.81-169-169s75.81-169,169-169,169,75.81,169,169-75.81,169-169,169Zm0-299c-71.68,0-130,58.32-130,130s58.32,130,130,130,130-58.32,130-130-58.32-130-130-130Z"/>
  </g>
  <path class="cls-5" d="m737.09,4284.18c-61.99,0-120.28-24.14-164.11-67.98s-67.98-102.12-67.98-164.11,24.14-120.28,67.98-164.11,102.12-67.98,164.11-67.98,120.28,24.14,164.11,67.98,67.98,102.12,67.98,164.11-24.14,120.28-67.98,164.11-102.12,67.98-164.11,67.98Zm0-425.18c-106.47,0-193.09,86.62-193.09,193.09s86.62,193.09,193.09,193.09,193.09-86.62,193.09-193.09-86.62-193.09-193.09-193.09h0Z"/>
  <path class="cls-3" d="m737.09,4221.09c-93.19,0-169-75.81-169-169s75.81-169,169-169,169,75.81,169,169-75.81,169-169,169Zm0-299c-71.68,0-130,58.32-130,130s58.32,130,130,130,130-58.32,130-130-58.32-130-130-130Z"/>
  <g>
    <path class="cls-3" d="m749.5,6136c-65.31,0-126.71-25.43-172.89-71.61s-71.61-107.58-71.61-172.89,25.43-126.71,71.61-172.89,107.58-71.61,172.89-71.61,126.71,25.43,172.89,71.61c46.18,46.18,71.61,107.58,71.61,172.89s-25.43,126.71-71.61,172.89-107.58,71.61-172.89,71.61Zm0-447.91c-112.16,0-203.41,91.25-203.41,203.41s91.25,203.41,203.41,203.41,203.41-91.25,203.41-203.41-91.25-203.41-203.41-203.41Z"/>
    <path class="cls-1" d="m749.5,6069.54c-98.17,0-178.04-79.87-178.04-178.04s79.87-178.04,178.04-178.04,178.04,79.87,178.04,178.04-79.87,178.04-178.04,178.04Zm0-314.99c-75.52,0-136.95,61.44-136.95,136.95s61.44,136.95,136.95,136.95,136.95-61.44,136.95-136.95-61.44-136.95-136.95-136.95Z"/>
  </g>
  <path class="cls-1" d="m0,5864l-.11-39,89.54-.39c11.27-.03,20.44-9.23,20.44-20.5v-1382.95c0-11.3-9.2-20.5-20.5-20.5H0v-39h89.38c32.81,0,59.5,26.69,59.5,59.5v1382.95c0,32.72-26.62,59.41-59.33,59.5l-89.54.39h-.01Z"/>
  <path class="cls-5" d="m954,7279.31h-409c-32.81,0-59.5-26.69-59.5-59.5v-203.31c0-11.3-9.2-20.5-20.5-20.5H-.11v-39h465.11c32.81,0,59.5,26.69,59.5,59.5v203.31c0,11.3,9.2,20.5,20.5,20.5h409c11.3,0,20.5-9.2,20.5-20.5v-203.31c0-32.81,26.69-59.5,59.5-59.5h406v39h-406c-11.3,0-20.5,9.2-20.5,20.5v203.31c0,32.81-26.69,59.5-59.5,59.5Z"/>
  <path class="cls-4" d="m1044,7364.31H455c-32.81,0-59.5-26.69-59.5-59.5v-203.31c0-11.3-9.2-20.5-20.5-20.5H-.11v-39h375.11c32.81,0,59.5,26.69,59.5,59.5v203.31c0,11.3,9.2,20.5,20.5,20.5h589c11.3,0,20.5-9.2,20.5-20.5v-203.31c0-32.81,26.69-59.5,59.5-59.5h316v39h-316c-11.3,0-20.5,9.2-20.5,20.5v203.31c0,32.81-26.69,59.5-59.5,59.5Z"/>
</svg>