<?xml version="1.0" encoding="utf-8"?>
<!-- Generator: Adobe Illustrator 27.7.0, SVG Export Plug-In . SVG Version: 6.00 Build 0)  -->
<svg version="1.1" id="Ebene_1" xmlns="http://www.w3.org/2000/svg" xmlns:xlink="http://www.w3.org/1999/xlink" x="0px" y="0px"
	 viewBox="0 0 1440 3371" style="enable-background:new 0 0 1440 3371;" xml:space="preserve">
<style type="text/css">
	.st0{fill:#FFF2D8;}
	.st1{fill:#FFF3D9;}
	.st2{fill:#E387AB;}
</style>
<g>
	<rect class="st0" width="1440" height="3371"/>
</g>
<path class="st1" d="M612.04,1650.03c0.02,0,0.03,0,0.05,0c0,13.17-0.32,26.34,0.09,39.49c0.44,14.15,6.1,26.4,16.82,35.55
	c15.26,13.03,32.68,16.36,51.75,9.13c17.58-6.66,31.26-24.96,31.3-44.26c0.06-26.33,0-52.66-0.09-78.99
	c-0.04-10.99-1.18-21.9-2.98-32.73c-4.2-25.3-16.7-45.7-36.64-61.63c-8.06-6.44-16.18-12.82-24.43-19.02
	c-9.59-7.2-18.41-15.35-28-22.53c-25.58-19.15-51.93-37.26-77.04-57.05c-17.92-14.12-35.58-28.56-52.22-44.14
	c-23.85-22.34-46.59-45.73-65.18-72.82c-10.79-15.73-20-32.26-25.53-50.64c-3.14-10.45-4.86-21.13-3.72-32.02
	c1.8-17.16,9.33-31.9,20.65-44.59c16.47-18.45,35.58-33.52,58.44-43.52c12.47-5.46,25.5-8.9,38.98-9.94
	c12.46-0.96,24.83,0.08,37.1,3.34c11.64,3.09,22.96,6.86,33.79,12.01c24.73,11.76,46.63,27.66,66.46,46.43
	c9.19,8.7,18.16,17.65,26.32,27.36c7.07,8.42,14.01,16.97,19.81,26.31c10.68,17.18,25.78,25.86,46.12,25.32
	c12.05-0.32,22.47-4.74,31.17-12.8c12.22-11.32,17.54-25.45,16.07-42.16c-0.63-7.13-2.64-13.76-6.33-19.77
	c-13.19-21.52-29.13-40.94-46.4-59.26c-7.31-7.75-14.97-15.15-22.9-22.31c-13.74-12.41-28.17-23.92-43.49-34.29
	c-17.69-11.97-36.28-22.28-56.01-30.6c-25.37-10.71-51.76-17.24-79.11-19.48c-19.13-1.57-38.26-0.2-57.09,3.93
	c-21.23,4.66-41.53,11.89-60.82,22.04c-20.92,11.01-39.83,24.83-57.25,40.66c-14.21,12.92-26.74,27.35-37.2,43.57
	c-21.97,34.07-31.7,71.05-27.7,111.58c1.41,14.32,4.37,28.24,8.76,41.88c7.71,23.95,19.2,46.05,32.94,67.04
	c15.55,23.76,33.76,45.4,53.29,65.93c17.69,18.59,36.58,35.92,56.14,52.54c17.25,14.67,34.88,28.85,53.05,42.35
	c17.24,12.81,34.79,25.19,51.96,38.07c10.91,8.19,21.35,16.99,32.06,25.44c7.58,5.98,15.24,11.85,22.91,17.71
	c1.85,1.41,2.94,3.04,3.03,5.42c0.26,6.81,1.22,13.58,1.11,20.42C611.92,1629.36,612.04,1639.69,612.04,1650.03z M659.98,1894.08
	c34.77,0.81,63.86-27.99,63.84-63.07c-0.02-36-28.17-63.53-63.25-63.82c-35.47-0.29-63.56,28.92-63.81,63.27
	C596.49,1865.16,625.81,1894.87,659.98,1894.08z"/>
<g>
	<path class="st2" d="M612.04,2349c0-10.33-0.13-20.67,0.04-31c0.11-6.85-0.85-13.61-1.11-20.42c-0.09-2.38-1.19-4.01-3.03-5.42
		c-7.67-5.86-15.33-11.73-22.91-17.71c-10.71-8.45-21.15-17.26-32.06-25.44c-17.17-12.89-34.72-25.27-51.96-38.07
		c-18.17-13.5-35.8-27.68-53.05-42.35c-19.56-16.62-38.45-33.95-56.14-52.54c-19.53-20.53-37.74-42.17-53.29-65.93
		c-13.74-20.99-25.23-43.1-32.94-67.04c-4.39-13.64-7.35-27.56-8.76-41.88c-3.99-40.53,5.73-77.52,27.7-111.58
		c10.46-16.22,22.99-30.65,37.2-43.57c17.42-15.83,36.33-29.65,57.25-40.66c19.29-10.15,39.58-17.38,60.82-22.04
		c18.82-4.13,37.95-5.5,57.09-3.93c27.34,2.24,53.74,8.77,79.11,19.48c19.73,8.33,38.32,18.64,56.01,30.6
		c15.32,10.36,29.75,21.88,43.49,34.29c7.93,7.15,15.59,14.56,22.9,22.31c17.28,18.32,33.21,37.74,46.4,59.26
		c3.69,6.01,5.7,12.65,6.33,19.77c1.47,16.71-3.86,30.84-16.07,42.16c-8.7,8.06-19.12,12.48-31.17,12.8
		c-20.34,0.54-35.44-8.14-46.12-25.32c-5.8-9.33-12.74-17.89-19.81-26.31c-8.16-9.71-17.13-18.66-26.32-27.36
		c-19.83-18.78-41.73-34.68-66.46-46.43c-10.83-5.15-22.15-8.92-33.79-12.01c-12.27-3.26-24.64-4.3-37.1-3.34
		c-13.48,1.04-26.51,4.48-38.98,9.94c-22.85,10.01-41.96,25.07-58.44,43.52c-11.33,12.69-18.86,27.43-20.65,44.59
		c-1.14,10.89,0.58,21.57,3.72,32.02c5.53,18.38,14.74,34.9,25.53,50.64c18.58,27.09,41.33,50.48,65.18,72.82
		c16.64,15.58,34.3,30.03,52.22,44.15c25.11,19.79,51.46,37.9,77.04,57.05c9.59,7.18,18.41,15.33,28,22.53
		c8.25,6.2,16.36,12.58,24.43,19.02c19.94,15.93,32.43,36.33,36.64,61.63c1.8,10.84,2.95,21.74,2.98,32.73
		c0.09,26.33,0.15,52.66,0.09,78.99c-0.04,19.3-13.72,37.59-31.3,44.26c-19.06,7.22-36.49,3.89-51.75-9.13
		c-10.72-9.15-16.38-21.4-16.82-35.55c-0.4-13.15-0.09-26.33-0.09-39.49C612.07,2349,612.06,2349,612.04,2349z"/>
	<path class="st2" d="M659.98,2593.05c-34.17,0.79-63.48-28.92-63.23-63.62c0.26-34.35,28.35-63.56,63.81-63.27
		c35.08,0.29,63.23,27.82,63.25,63.82C723.83,2565.06,694.74,2593.86,659.98,2593.05z"/>
</g>
</svg>
